<?xml version="1.0" encoding="utf-8"?>
<!-- Svg Vector Icons : http://www.sfont.cn -->
<!DOCTYPE svg PUBLIC "-//W3C//DTD SVG 1.1//EN" "http://www.w3.org/Graphics/SVG/1.1/DTD/svg11.dtd">
<svg version="1.1" xmlns="http://www.w3.org/2000/svg" xmlns:xlink="http://www.w3.org/1999/xlink" x="0px" y="0px" viewBox="0 0 1000 1000" enable-background="new 0 0 1000 1000" xml:space="preserve">
<metadata> Svg Vector Icons : http://www.sfont.cn </metadata>
<g><path d="M500,10c-203,0-367.5,164.5-367.5,367.5c0,79.9,26.2,153.2,69.7,213.3c0.8,1.4,0.9,3,1.8,4.4l245,367.5c11.4,17,30.5,27.3,51,27.3c20.5,0,39.6-10.2,51-27.3l245-367.5c0.9-1.4,1-3,1.8-4.4c43.5-60.1,69.7-133.4,69.7-213.3C867.5,174.5,703,10,500,10z M683.8,542.7L500,818.3L316.3,542.7C293.3,500,255,439.2,255,377.5c0-135.3,109.7-245,245-245c135.3,0,245,109.7,245,245C745,439.2,713.5,500,683.8,542.7z"/><path d="M377.5,377.5c0,67.7,54.8,122.5,122.5,122.5c67.7,0,122.5-54.8,122.5-122.5c0-67.7-54.8-122.5-122.5-122.5C432.3,255,377.5,309.8,377.5,377.5z"/></g>
</svg>